# xmcd
#
# Track frame offsets: 
#        150
#        18149
#        32264
#        54525
#        70799
#        97565
#        117393
#        133394
#        152385
#        168291
#        189118
#        207264
#        223667
#
# Disc length: 3168 seconds
#
# Revision: 0
# Processed by: cddbd v1.5.2PL0 Copyright (c) Steve Scherf et al.
# Submitted via: ExactAudioCopy v1.3
#
DISCID=9e0c5e0d
DTITLE=Jack De Keyzer - Check Mate
DYEAR=2018
DGENRE=Blues
TTITLE0=Howlin' For My Darling
TTITLE1=All Your Love
TTITLE2=Stranger Blues
TTITLE3=Talk To Me Baby
TTITLE4=Double Trouble
TTITLE5=Broke Down Engine Blues
TTITLE6=Do Right Woman
TTITLE7=Days Of Old
TTITLE8=Evil (Is Going On)
TTITLE9=I Ain't Superstitious
TTITLE10=I Can't Quit You Baby
TTITLE11=Walking Blues
TTITLE12=Come In My Kitchen
EXTD=
EXTT0=
EXTT1=
EXTT2=
EXTT3=
EXTT4=
EXTT5=
EXTT6=
EXTT7=
EXTT8=
EXTT9=
EXTT10=
EXTT11=
EXTT12=
PLAYORDER=
